<?xml version="1.0"?>
<!DOCTYPE svg PUBLIC "-//W3C//DTD SVG 1.1//EN" "http://www.w3.org/Graphics/SVG/1.1/DTD/svg11.dtd">
<svg xmlns="http://www.w3.org/2000/svg" xmlns:xl="http://www.w3.org/1999/xlink" version="1.1" viewBox="133 321 407 83" width="407pt" height="83pt"><metadata xmlns:dc="http://purl.org/dc/elements/1.1/"><dc:date>2016-12-05 21:52Z</dc:date><!-- Produced by OmniGraffle Professional 5.4.2 --></metadata><defs></defs><g stroke="none" stroke-opacity="1" stroke-dasharray="none" fill="none" fill-opacity="1"><title>18</title><g><title>Layer 1</title><path d="M 306.27898 377.4124 L 262.28235 377.4124 L 262.28235 338.51846" stroke="#4e4e4e" stroke-linecap="round" stroke-linejoin="round" stroke-width="1"/><path d="M 301.40112 337.85693 L 305.50426 338.23445 L 305.1271 342.3376" stroke="#4e4e4e" stroke-linecap="round" stroke-linejoin="round" stroke-width="1"/><path d="M 262.45148 360.16585 L 278.63719 348.22531 L 285.80583 354.5562 L 304.89307 338.7358" stroke="#4e4e4e" stroke-linecap="round" stroke-linejoin="round" stroke-width="1"/><line x1="266.11217" y1="377.4124" x2="266.11217" y2="357.51617" stroke="#4e4e4e" stroke-linecap="round" stroke-linejoin="round" stroke-width="1"/><line x1="271.0572" y1="377.4124" x2="271.0572" y2="353.81716" stroke="#4e4e4e" stroke-linecap="round" stroke-linejoin="round" stroke-width="1"/><line x1="276.00218" y1="377.4124" x2="276.00218" y2="350.2012" stroke="#4e4e4e" stroke-linecap="round" stroke-linejoin="round" stroke-width="1"/><line x1="280.94717" y1="377.4124" x2="280.94717" y2="350.73513" stroke="#4e4e4e" stroke-linecap="round" stroke-linejoin="round" stroke-width="1"/><line x1="285.89219" y1="377.4124" x2="285.89219" y2="354.55639" stroke="#4e4e4e" stroke-linecap="round" stroke-linejoin="round" stroke-width="1"/><line x1="290.83718" y1="377.4124" x2="290.83718" y2="350.73513" stroke="#4e4e4e" stroke-linecap="round" stroke-linejoin="round" stroke-width="1"/><line x1="295.78216" y1="377.4124" x2="295.78216" y2="346.4666" stroke="#4e4e4e" stroke-linecap="round" stroke-linejoin="round" stroke-width="1"/><line x1="300.72719" y1="377.4124" x2="300.72719" y2="342.43212" stroke="#4e4e4e" stroke-linecap="round" stroke-linejoin="round" stroke-width="1"/><path d="M 266.25534 328.0614 L 300.78817 328.0614 C 309.07245 328.0614 315.78817 334.77712 315.78817 343.0614 L 315.78817 373.04966 C 315.78817 381.33393 309.07245 388.04966 300.78817 388.04966 L 266.25534 388.04966 C 257.97107 388.04966 251.25534 381.33393 251.25534 373.04966 C 251.25534 373.04966 251.25534 373.04966 251.25534 373.04965 L 251.25534 343.0614 C 251.25534 334.77712 257.97107 328.0614 266.25534 328.0614 C 266.25534 328.0614 266.25534 328.0614 266.25534 328.0614 Z" stroke="black" stroke-linecap="round" stroke-linejoin="round" stroke-width=".5"/><path d="M 390.28936 357.11126 C 391.8444 358.02199 392.36707 360.02197 391.4541 361.57758 C 390.54337 363.1332 388.54395 363.6536 386.9889 362.74232 C 385.43386 361.8316 384.9112 359.83217 385.82191 358.276 C 386.7349 356.72152 388.73375 356.19885 390.28936 357.11126 M 390.84976 356.15436 C 388.76642 354.9333 386.08606 355.63225 384.86557 357.71616 C 383.64508 359.80007 384.3446 362.47873 386.4285 363.69922 C 388.5124 364.92028 391.19164 364.2219 392.41326 362.13742 C 393.63319 360.05577 392.93367 357.37541 390.84976 356.15436" fill="#3c3c3b"/><path d="M 392.34313 353.60546 C 395.8334 355.65163 397.00602 360.13935 394.95985 363.6313 C 392.91424 367.12156 388.42652 368.29418 384.93513 366.24745 C 381.44374 364.2024 380.27225 359.71412 382.31785 356.22273 C 384.36459 352.73021 388.8523 351.56041 392.34313 353.60546 M 393.60024 351.45847 C 388.9244 348.71785 382.91092 350.2881 380.17087 354.96563 C 377.43025 359.64203 379.0005 365.65607 383.6769 368.39556 C 388.3533 371.13562 394.36678 369.5665 397.10683 364.88953 C 399.84914 360.21144 398.27833 354.19965 393.60024 351.45847" fill="#3c3c3b"/><path d="M 395.8646 347.59705 C 402.6739 351.58688 404.95944 360.34267 400.96904 367.15141 C 396.9792 373.96072 388.22455 376.24682 381.41411 372.25642 C 374.6048 368.26546 372.31983 359.51249 376.30967 352.70205 C 380.2995 345.89387 389.0536 343.60665 395.8646 347.59705 M 398.31741 343.40952 C 389.1944 338.06458 377.46652 341.12736 372.12214 350.24924 C 366.77608 359.37 369.8383 371.099 378.96074 376.4445 C 388.08262 381.79001 399.81107 378.72723 405.156 369.60592 C 410.5015 360.48404 407.43986 348.75558 398.31741 343.40952" fill="#3c3c3b"/><path d="M 389.38624 358.8092 C 388.74642 358.4341 387.9247 358.6498 387.54902 359.2885 C 387.17505 359.9283 387.38907 360.75005 388.02888 361.12459 C 388.6687 361.49913 389.48987 361.2851 389.86441 360.64472 C 390.23952 360.00547 390.02493 359.18374 389.38624 358.8092 Z" fill="#3c3c3b"/><path d="M 417.38567 347.69499 C 417.07533 346.63558 416.15447 346.3855 416.15447 346.3855 C 416.1494 346.35566 416.14152 346.3275 416.12744 346.29933 L 415.91905 345.88706 C 415.89427 345.83693 415.85653 345.79694 415.81373 345.76653 C 416.25304 344.83891 415.55014 343.89045 415.55014 343.89045 C 413.13675 344.85186 412.08804 346.71612 411.68703 347.69217 L 388.81418 359.48765 C 388.65085 359.5727 388.58608 359.7749 388.66943 359.93935 L 388.87782 360.35275 C 388.96062 360.51721 389.16056 360.5831 389.3239 360.49806 L 412.34768 348.62543 C 413.43864 348.85071 415.37047 348.96054 417.38567 347.69499 Z" fill="#3c3c3b"/><path d="M 372.58083 328.0614 L 407.11366 328.0614 C 415.39794 328.0614 422.11366 334.77712 422.11366 343.0614 L 422.11366 373.04966 C 422.11366 381.33393 415.39794 388.04966 407.11366 388.04966 L 372.58083 388.04966 C 364.29656 388.04966 357.58083 381.33393 357.58083 373.04966 C 357.58083 373.04966 357.58083 373.04966 357.58083 373.04965 L 357.58083 343.0614 C 357.58083 334.77712 364.29656 328.0614 372.58083 328.0614 C 372.58083 328.0614 372.58083 328.0614 372.58083 328.0614 Z" stroke="black" stroke-linecap="round" stroke-linejoin="round" stroke-width=".5"/><path d="M 478.90632 328.0614 L 513.43915 328.0614 C 521.72343 328.0614 528.43915 334.77712 528.43915 343.0614 L 528.43915 373.04966 C 528.43915 381.33393 521.72343 388.04966 513.43915 388.04966 L 478.90632 388.04966 C 470.62205 388.04966 463.90632 381.33393 463.90632 373.04966 C 463.90632 373.04966 463.90632 373.04966 463.90632 373.04965 L 463.90632 343.0614 C 463.90632 334.77712 470.62205 328.0614 478.90632 328.0614 C 478.90632 328.0614 478.90632 328.0614 478.90632 328.0614 Z" stroke="black" stroke-linecap="round" stroke-linejoin="round" stroke-width=".5"/><path d="M 500.75688 378.6065 C 500.96017 377.88755 501.41563 376.67754 502.38427 375.4631 C 504.43418 372.89346 507.67355 371.5905 512.01296 371.5905 L 512.5001 371.5905 C 513.54118 371.5905 514.48627 371.17435 515.1799 370.50072 L 515.1799 378.6065 Z M 499.345 368.37503 L 504.41222 368.37503 L 504.41222 372.2186 C 503.33627 372.83857 502.32938 373.65704 501.47017 374.73406 C 500.2336 376.28442 499.73476 377.83123 499.5483 378.6065 L 499.345 378.6065 Z M 493.7145 378.6065 L 482.87668 378.6065 L 482.87668 367.3028 L 485.50777 367.3028 L 485.50777 373.44189 C 485.50777 373.7647 485.7695 374.0268 486.09232 374.0268 L 490.96475 374.0268 C 491.2874 374.0268 491.54948 373.7647 491.54948 373.44189 L 491.54948 367.3028 L 495.34984 367.3028 L 495.34984 378.6065 Z M 474.69122 371.39552 L 475.47073 371.39552 L 475.47073 378.6065 L 474.69122 378.6065 Z M 474.5182 363.68074 L 480.67696 363.68074 L 480.3467 366.6536 C 480.32846 366.819 480.38123 366.98422 480.4919 367.108 C 480.60294 367.23213 480.76143 367.3028 480.9277 367.3028 L 481.7074 367.3028 L 481.7074 370.22625 L 473.6087 370.22625 Z M 480.8303 371.39552 L 481.7074 371.39552 L 481.7074 378.6065 L 480.8303 378.6065 Z M 478.73543 371.39552 L 479.66104 371.39552 L 479.66104 378.6065 L 478.73543 378.6065 Z M 477.56597 378.6065 L 476.64 378.6065 L 476.64 371.39552 L 477.56597 371.39552 Z M 489.11317 367.3028 L 490.37984 367.3028 L 490.37984 372.85716 L 489.11317 372.85716 Z M 486.67705 367.3028 L 487.9439 367.3028 L 487.9439 372.85716 L 486.67705 372.85716 Z M 482.52305 357.65569 L 492.91372 357.65569 L 492.91372 362.6255 C 492.91372 362.94833 493.17545 363.21024 493.49827 363.21024 L 496.7139 363.21024 L 496.7139 366.13351 L 481.58114 366.13351 Z M 502.99928 340.99133 L 511.69934 350.3521 L 511.69934 370.42352 C 509.8474 370.45132 507.64362 370.73377 505.5815 371.63016 L 505.5815 367.79012 C 505.5815 367.46748 505.31977 367.2054 504.99677 367.2054 L 498.76045 367.2054 C 498.43746 367.2054 498.17573 367.46748 498.17573 367.79012 L 498.17573 378.6065 L 496.51894 378.6065 L 496.51894 367.3028 L 497.2988 367.3028 C 497.62146 367.3028 497.88336 367.04106 497.88336 366.71806 L 497.88336 362.6255 C 497.88336 362.30269 497.62146 362.04078 497.2988 362.04078 L 494.083 362.04078 L 494.083 350.58514 Z M 495.44742 341.4799 L 497.49343 341.4799 L 497.49343 345.19758 L 495.44742 347.39942 Z M 514.7758 366.3283 L 512.86862 366.3283 L 512.86862 365.08749 C 513.67275 365.19852 514.36408 365.66779 514.7758 366.3283 M 515.12607 368.27745 L 512.86862 368.27745 L 512.86862 367.49794 L 515.1684 367.49794 C 515.17565 367.57815 515.1799 367.65944 515.1799 367.74142 C 515.1799 367.92488 515.1615 368.10391 515.12607 368.27745 M 512.86862 369.44673 L 514.5656 369.44673 C 514.14786 369.95195 513.54826 370.3015 512.86862 370.39518 Z M 512.86862 363.91024 L 512.86862 351.61027 L 513.96653 352.79176 C 514.1863 353.02834 514.55622 353.0418 514.7928 352.82204 C 515.0292 352.6021 515.04284 352.23218 514.82308 351.99595 L 500.4415 336.5216 C 500.22156 336.28519 499.85164 336.27173 499.61505 336.49131 C 499.37865 336.71107 499.3652 337.081 499.58495 337.31758 L 502.2008 340.1323 L 498.66306 343.9394 L 498.66306 340.89518 C 498.66306 340.57236 498.40098 340.31045 498.07833 340.31045 L 494.8627 340.31045 C 494.53987 340.31045 494.2778 340.57236 494.2778 340.89518 L 494.2778 348.6576 L 491.17548 351.99595 C 490.95572 352.23218 490.96935 352.6021 491.20576 352.82204 C 491.3182 352.9267 491.4613 352.97823 491.60384 352.97823 C 491.76038 352.97823 491.91674 352.91572 492.03203 352.79176 L 492.91372 351.84313 L 492.91372 356.48641 L 481.9996 356.48641 C 481.70191 356.48641 481.45134 356.7106 481.41858 357.0065 L 480.80712 362.51147 L 474.0091 362.51147 C 473.71726 362.51147 473.47023 362.72662 473.4302 363.01562 L 472.35815 370.73022 C 472.33478 370.8981 472.38525 371.06721 472.49628 371.19489 C 472.6073 371.32239 472.7681 371.39552 472.93704 371.39552 L 473.52176 371.39552 L 473.52176 379.1914 C 473.52176 379.51405 473.78367 379.77595 474.10667 379.77595 L 515.76463 379.77595 C 516.08745 379.77595 516.34918 379.51423 516.34918 379.1914 L 516.34918 367.74142 C 516.34935 365.74322 514.81865 364.09653 512.86862 363.91024" fill="#020302"/><path d="M 497.98087 356.48646 L 496.8114 356.48646 L 496.8114 353.95277 L 497.98087 353.95277 Z M 500.31942 356.48646 L 499.15014 356.48646 L 499.15014 353.95277 L 500.31942 353.95277 Z M 499.15014 357.65574 L 500.31942 357.65574 L 500.31942 360.18944 L 499.15014 360.18944 Z M 496.8114 357.65574 L 497.98087 357.65574 L 497.98087 360.18944 L 496.8114 360.18944 Z M 496.2267 361.35871 L 500.90414 361.35871 C 501.22697 361.35871 501.48887 361.0968 501.48887 360.77399 L 501.48887 353.36804 C 501.48887 353.0454 501.22697 352.7835 500.90414 352.7835 L 496.2267 352.7835 C 495.90386 352.7835 495.64214 353.0454 495.64214 353.36804 L 495.64214 360.77399 C 495.64214 361.0968 495.90386 361.35871 496.2267 361.35871" fill="#020302"/><path d="M 506.65348 356.48646 L 505.48403 356.48646 L 505.48403 353.95277 L 506.65348 353.95277 Z M 508.99204 356.48646 L 507.82276 356.48646 L 507.82276 353.95277 L 508.99204 353.95277 Z M 507.82294 357.65574 L 508.9922 357.65574 L 508.9922 360.18944 L 507.82294 360.18944 Z M 505.4842 357.65574 L 506.65366 357.65574 L 506.65366 360.18944 L 505.4842 360.18944 Z M 504.31475 353.36804 L 504.31475 360.77399 C 504.31475 361.0968 504.57666 361.35871 504.89948 361.35871 L 509.57676 361.35871 C 509.89958 361.35871 510.1615 361.0968 510.1615 360.77399 L 510.1615 353.36804 C 510.1615 353.0454 509.89958 352.7835 509.57676 352.7835 L 504.89948 352.7835 C 504.57666 352.7835 504.31475 353.04522 504.31475 353.36804" fill="#020302"/><path d="M 502.9993 344.69553 C 503.59022 344.69553 504.07118 345.17649 504.07118 345.7674 C 504.07118 346.35851 503.59022 346.8393 502.9993 346.8393 C 502.4082 346.8393 501.92724 346.35851 501.92724 345.7674 C 501.92724 345.17649 502.4082 344.69553 502.9993 344.69553 M 502.9993 348.00874 C 504.23516 348.00874 505.24045 347.00327 505.24045 345.7674 C 505.24045 344.53155 504.23516 343.52608 502.9993 343.52608 C 501.76344 343.52608 500.75796 344.53155 500.75796 345.7674 C 500.75796 347.00327 501.76344 348.00874 502.9993 348.00874" fill="#020302"/><path d="M 159.929855 328.0614 L 194.46268 328.0614 C 202.74696 328.0614 209.46268 334.77712 209.46268 343.0614 L 209.46268 373.04966 C 209.46268 381.33393 202.74696 388.04966 194.46268 388.04966 L 159.929855 388.04966 C 151.64558 388.04966 144.929855 381.33393 144.929855 373.04966 C 144.929855 373.04966 144.929855 373.04966 144.929855 373.04965 L 144.929855 343.0614 C 144.929855 334.77712 151.64558 328.0614 159.929855 328.0614 C 159.929855 328.0614 159.929855 328.0614 159.929855 328.0614 Z" fill="#57ca93"/><path d="M 159.929855 328.0614 L 194.46268 328.0614 C 202.74696 328.0614 209.46268 334.77712 209.46268 343.0614 L 209.46268 373.04966 C 209.46268 381.33393 202.74696 388.04966 194.46268 388.04966 L 159.929855 388.04966 C 151.64558 388.04966 144.929855 381.33393 144.929855 373.04966 C 144.929855 373.04966 144.929855 373.04966 144.929855 373.04965 L 144.929855 343.0614 C 144.929855 334.77712 151.64558 328.0614 159.929855 328.0614 C 159.929855 328.0614 159.929855 328.0614 159.929855 328.0614 Z" stroke="black" stroke-linecap="round" stroke-linejoin="round" stroke-width=".5"/><path d="M 158.36225 341.25477 C 158.36225 340.776 158.75123 340.38701 159.23001 340.38701 L 195.16207 340.38701 C 195.64085 340.38701 196.02983 340.776 196.02983 341.25477 L 196.02983 369.07122 L 158.36225 369.07122 Z M 198.42845 369.07122 L 197.56164 369.07122 L 197.56164 341.25477 C 197.56164 339.93186 196.48497 338.85615 195.16207 338.85615 L 177.96194 338.85615 L 177.96194 337.1712 C 177.96194 336.74867 177.61881 336.406 177.19628 336.406 C 176.77327 336.406 176.43061 336.74867 176.43061 337.1712 L 176.43061 338.85615 L 159.23001 338.85615 C 157.9071 338.85615 156.83139 339.93186 156.83139 341.25477 L 156.83139 369.07122 L 155.96363 369.07122 C 155.54062 369.07122 155.19796 369.41435 155.19796 369.83736 C 155.19796 370.2599 155.54062 370.60303 155.96363 370.60303 L 167.10836 370.60303 L 162.59611 382.6349 C 162.44818 383.03096 162.6481 383.47193 163.04417 383.6208 C 163.13303 383.65342 163.22377 383.6695 163.31357 383.6695 C 163.62315 383.6695 163.91476 383.4795 164.03009 383.17228 L 168.74367 370.60303 L 176.43061 370.60303 L 176.43061 382.90335 C 176.43061 383.32636 176.77327 383.66902 177.19628 383.66902 C 177.61881 383.66902 177.96194 383.32636 177.96194 382.90335 L 177.96194 370.60303 L 185.6484 370.60303 L 190.36199 383.17228 C 190.47731 383.4795 190.76893 383.66902 191.07898 383.66902 C 191.1683 383.66902 191.25952 383.65342 191.34791 383.6208 C 191.7435 383.47193 191.94437 383.03096 191.79549 382.6349 L 187.28372 370.60303 L 198.42845 370.60303 C 198.85193 370.60303 199.19459 370.2599 199.19459 369.83736 C 199.19459 369.41435 198.85193 369.07122 198.42845 369.07122" fill="#020302"/><path d="M 169.84624 355.90323 C 170.32502 355.90323 170.71399 356.29221 170.71399 356.771 C 170.71399 357.24977 170.32502 357.63875 169.84624 357.63875 C 169.36793 357.63875 168.97848 357.24977 168.97848 356.771 C 168.97848 356.29221 169.36793 355.90323 169.84624 355.90323 M 169.84624 359.16961 C 171.16914 359.16961 172.24533 358.0939 172.24533 356.771 C 172.24533 355.44809 171.16914 354.37237 169.84624 354.37237 C 168.52333 354.37237 167.44762 355.44809 167.44762 356.771 C 167.44762 358.0939 168.52333 359.16961 169.84624 359.16961" fill="#020302"/><path d="M 175.5119 356.77094 C 175.5119 356.29217 175.90088 355.90319 176.37966 355.90319 C 176.85796 355.90319 177.24741 356.29217 177.24741 356.77094 C 177.24741 357.24972 176.85796 357.6387 176.37966 357.6387 C 175.90088 357.6387 175.5119 357.24972 175.5119 356.77094 M 178.77828 356.77094 C 178.77828 355.44804 177.70256 354.37232 176.37966 354.37232 C 175.05675 354.37232 173.98056 355.44804 173.98056 356.77094 C 173.98056 358.09385 175.05675 359.16957 176.37966 359.16957 C 177.70256 359.16957 178.77828 358.09385 178.77828 356.77094" fill="#020302"/><path d="M 182.04475 356.77094 C 182.04475 356.29217 182.4342 355.90319 182.91251 355.90319 C 183.39129 355.90319 183.78027 356.29217 183.78027 356.77094 C 183.78027 357.24972 183.39129 357.6387 182.91251 357.6387 C 182.4342 357.6387 182.04475 357.24972 182.04475 356.77094 M 185.3116 356.77094 C 185.3116 355.44804 184.23541 354.37232 182.91251 354.37232 C 181.59008 354.37232 180.51389 355.44804 180.51389 356.77094 C 180.51389 358.09385 181.59008 359.16957 182.91251 359.16957 C 184.23541 359.16957 185.3116 358.09385 185.3116 356.77094" fill="#020302"/><path d="M 173.98042 361.67084 C 173.98042 362.14915 173.59144 362.5386 173.11314 362.5386 C 172.63436 362.5386 172.24538 362.14915 172.24538 361.67084 C 172.24538 361.19207 172.63436 360.80309 173.11314 360.80309 C 173.59144 360.80309 173.98042 361.19207 173.98042 361.67084 M 170.71404 361.67084 C 170.71404 362.99375 171.79023 364.06947 173.11314 364.06947 C 174.43557 364.06947 175.51176 362.99375 175.51176 361.67084 C 175.51176 360.34794 174.43557 359.27175 173.11314 359.27175 C 171.79023 359.27175 170.71404 360.34794 170.71404 361.67084" fill="#020302"/><path d="M 179.64604 360.80313 C 180.12481 360.80313 180.51379 361.19211 180.51379 361.6709 C 180.51379 362.1492 180.12481 362.53865 179.64604 362.53865 C 179.16726 362.53865 178.77828 362.1492 178.77828 361.6709 C 178.77828 361.19211 179.16726 360.80313 179.64604 360.80313 M 179.64604 364.06951 C 180.96894 364.06951 182.04466 362.9938 182.04466 361.6709 C 182.04466 360.34799 180.96894 359.2718 179.64604 359.2718 C 178.32313 359.2718 177.24741 360.34799 177.24741 361.6709 C 177.24741 362.9938 178.32313 364.06951 179.64604 364.06951" fill="#020302"/><path d="M 186.99588 366.6215 C 186.51711 366.6215 186.12813 366.23253 186.12813 365.75375 C 186.12813 365.27544 186.51711 364.88646 186.99588 364.88646 C 187.47466 364.88646 187.86364 365.27544 187.86364 365.75375 C 187.86364 366.23253 187.47466 366.6215 186.99588 366.6215 M 186.99588 363.35513 C 185.67298 363.35513 184.59726 364.43132 184.59726 365.75375 C 184.59726 367.07665 185.67298 368.15284 186.99588 368.15284 C 188.31879 368.15284 189.39451 367.07665 189.39451 365.75375 C 189.39451 364.43132 188.31879 363.35513 186.99588 363.35513" fill="#020302"/><path d="M 189.44583 355.90323 C 189.92414 355.90323 190.31359 356.29221 190.31359 356.771 C 190.31359 357.24977 189.92414 357.63875 189.44583 357.63875 C 188.96706 357.63875 188.57808 357.24977 188.57808 356.771 C 188.57808 356.29221 188.96706 355.90323 189.44583 355.90323 M 187.04721 356.771 C 187.04721 358.0939 188.12293 359.16961 189.44583 359.16961 C 190.76874 359.16961 191.84446 358.0939 191.84446 356.771 C 191.84446 355.44809 190.76874 354.37237 189.44583 354.37237 C 188.12293 354.37237 187.04721 355.44809 187.04721 356.771" fill="#020302"/><path d="M 177.47121 353.22897 C 177.62056 353.37833 177.8167 353.45347 178.01285 353.45347 C 178.20899 353.45347 178.40466 353.37833 178.55449 353.22897 L 179.64627 352.13719 L 180.73806 353.22897 C 180.88788 353.37833 181.08355 353.45347 181.2797 353.45347 C 181.47537 353.45347 181.67151 353.37833 181.82086 353.22897 C 182.12004 352.9298 182.12004 352.44534 181.82086 352.14617 L 180.72908 351.05438 L 181.82086 349.9626 C 182.12004 349.66342 182.12004 349.17896 181.82086 348.87979 C 181.52169 348.5806 181.03724 348.5806 180.73806 348.87979 L 179.64627 349.97157 L 178.55449 348.87979 C 178.25531 348.5806 177.77086 348.5806 177.47168 348.87979 C 177.1725 349.17896 177.1725 349.66342 177.47168 349.9626 L 178.56394 351.05438 L 177.47168 352.14617 C 177.1725 352.44534 177.1725 352.93027 177.47121 353.22897 Z" fill="#020302"/><path d="M 170.93831 353.22897 C 171.08766 353.37833 171.28333 353.45347 171.47995 353.45347 C 171.67562 353.45347 171.87176 353.37833 172.02111 353.22897 L 173.11337 352.13719 L 174.20469 353.22897 C 174.35451 353.37833 174.55065 353.45347 174.74633 353.45347 C 174.94247 353.45347 175.13814 353.37833 175.28749 353.22897 C 175.58667 352.9298 175.58667 352.44534 175.28749 352.14617 L 174.19571 351.05438 L 175.28749 349.9626 C 175.58667 349.66342 175.58667 349.17896 175.28749 348.87979 C 174.98831 348.5806 174.50386 348.5806 174.20469 348.87979 L 173.11337 349.97157 L 172.02111 348.87979 C 171.72194 348.5806 171.23748 348.5806 170.93831 348.87979 C 170.63913 349.17896 170.63913 349.66342 170.93831 349.9626 L 172.03057 351.05438 L 170.93831 352.14617 C 170.63913 352.44534 170.63913 352.93027 170.93831 353.22897 Z" fill="#020302"/><path d="M 185.08734 348.87974 C 184.78816 348.58103 184.30371 348.58103 184.00453 348.87974 C 183.70535 349.17892 183.70535 349.66337 184.00453 349.96255 L 185.09679 351.0548 L 184.00453 352.14612 C 183.70535 352.4453 183.70535 352.93022 184.00453 353.22893 C 184.15388 353.37875 184.35003 353.45343 184.5457 353.45343 C 184.74231 353.45343 184.93799 353.37875 185.08734 353.22893 L 186.1796 352.13761 L 187.27091 353.22893 C 187.42074 353.37875 187.61688 353.45343 187.81302 353.45343 C 188.00869 353.45343 188.20484 353.37875 188.35372 353.22893 C 188.6529 352.92975 188.6529 352.4453 188.35372 352.14612 L 187.26193 351.0548 L 188.35372 349.96255 C 188.6529 349.66337 188.6529 349.17892 188.35372 348.87974 C 188.05454 348.58056 187.57009 348.58056 187.27091 348.87974 L 186.1796 349.972 Z" fill="#020302"/><path d="M 174.20473 347.5126 C 174.35409 347.66195 174.55023 347.7371 174.74637 347.7371 C 174.94252 347.7371 175.13819 347.66195 175.28754 347.5126 L 176.3798 346.42034 L 177.47111 347.5126 C 177.62094 347.66195 177.81708 347.7371 178.01275 347.7371 C 178.2089 347.7371 178.40457 347.66195 178.55439 347.5126 C 178.8531 347.21342 178.8531 346.72897 178.55439 346.4298 L 177.4626 345.338 L 178.55439 344.24622 C 178.8531 343.94704 178.8531 343.46259 178.55439 343.16341 C 178.25474 342.86423 177.77029 342.86423 177.47158 343.16341 L 176.3798 344.2552 L 175.28801 343.16341 C 174.98836 342.86423 174.50391 342.86423 174.20521 343.16341 C 173.90603 343.46259 173.90603 343.94704 174.20521 344.24622 L 175.29699 345.338 L 174.20473 346.4298 C 173.90603 346.72897 173.90603 347.21342 174.20473 347.5126 Z" fill="#020302"/><path d="M 180.73811 347.5126 C 180.88746 347.66195 181.08313 347.7371 181.27975 347.7371 C 181.47542 347.7371 181.67156 347.66195 181.82091 347.5126 L 182.9127 346.42034 L 184.00448 347.5126 C 184.15431 347.66195 184.35045 347.7371 184.54612 347.7371 C 184.7418 347.7371 184.93794 347.66195 185.08729 347.5126 C 185.38647 347.21342 185.38647 346.72897 185.08729 346.4298 L 183.9955 345.338 L 185.08729 344.24622 C 185.38647 343.94704 185.38647 343.46259 185.08729 343.16341 C 184.78811 342.86423 184.30366 342.86423 184.00448 343.16341 L 182.91317 344.2552 L 181.82091 343.16341 C 181.52173 342.86423 181.03728 342.86423 180.73811 343.16341 C 180.43893 343.46259 180.43893 343.94704 180.73811 344.24622 L 181.82989 345.338 L 180.73811 346.4298 C 180.43893 346.72897 180.43893 347.21342 180.73811 347.5126 Z" fill="#020302"/><path d="M 183.67822 365.7538 C 183.67822 365.33079 183.33556 364.9886 182.91256 364.9886 L 172.29623 364.9886 C 168.66545 364.9886 165.71196 362.03463 165.71196 358.40432 L 165.71196 351.84746 L 165.89487 352.21375 C 166.0291 352.48174 166.29944 352.63676 166.58019 352.63676 C 166.69551 352.63676 166.81178 352.6103 166.92238 352.55594 C 167.30048 352.36689 167.45362 351.90701 167.26456 351.52843 L 165.63114 348.26205 C 165.50164 348.00258 165.23649 347.83905 164.94676 347.83905 C 164.65657 347.83905 164.39142 348.00258 164.261915 348.26205 L 162.62849 351.52843 C 162.43896 351.90701 162.59304 352.36689 162.97068 352.55594 C 163.34926 352.74547 163.80913 352.59139 163.99818 352.21375 L 164.18109 351.84746 L 164.18109 358.40432 C 164.18109 362.87923 167.82133 366.51946 172.29671 366.51946 L 182.91303 366.51946 C 183.33556 366.51946 183.67822 366.1768 183.67822 365.7538 Z" fill="#020302"/></g></g></svg>
